<svg xmlns="http://www.w3.org/2000/svg" width="17" height="16" viewBox="0 0 17 16" fill="none">
<path d="M11.1673 1.33301V3.99967M5.83398 1.33301V3.99967" stroke="#FF7959" stroke-width="1.3" stroke-linecap="round" stroke-linejoin="round"/>
<path d="M9.16667 2.66699H7.83333C5.31917 2.66699 4.0621 2.66699 3.28105 3.44804C2.5 4.22909 2.5 5.48617 2.5 8.00033V9.33366C2.5 11.8478 2.5 13.1049 3.28105 13.8859C4.0621 14.667 5.31917 14.667 7.83333 14.667H9.16667C11.6808 14.667 12.9379 14.667 13.7189 13.8859C14.5 13.1049 14.5 11.8478 14.5 9.33366V8.00033C14.5 5.48617 14.5 4.22909 13.7189 3.44804C12.9379 2.66699 11.6808 2.66699 9.16667 2.66699Z" stroke="#FF7959" stroke-width="1.3" stroke-linecap="round" stroke-linejoin="round"/>
<path d="M2.5 6.66699H14.5" stroke="#FF7959" stroke-width="1.3" stroke-linecap="round" stroke-linejoin="round"/>
<path d="M8.49765 9.33301H8.50365M8.49765 11.9997H8.50365M11.1613 9.33301H11.1673M5.83398 9.33301H5.83996M5.83398 11.9997H5.83996" stroke="#FF7959" stroke-width="1.3" stroke-linecap="round" stroke-linejoin="round"/>
</svg>